<svg id="Calque_1-2" xmlns="http://www.w3.org/2000/svg" width="1358.63" height="422.2" viewBox="0 0 1358.63 422.2">
  <g id="Groupe_8" data-name="Groupe 8">
    <rect id="Rectangle_7" data-name="Rectangle 7" width="422.2" height="422.2" rx="211.1" fill="#221d2b"/>
    <path id="Tracé_13" data-name="Tracé 13" d="M308.1,281.97a51.279,51.279,0,0,1-16.25,10.67c-7.65,3.02-14.1,2.78-18.65-.71-4.49-3.44-5.5-9.36-2.58-15.09,3-5.88,10.14-7.75,17.71-9.74,9.99-2.62,20.32-5.33,21.9-17.59,1.91-14.84-7.64-24.75-17.22-29.08-11.07-5-27.73-4.95-38.18,6.95-9.05,10.32-10,22.17-11.02,34.72-.63,7.87-1.29,16.01-4.15,23.64-1.73,4.61-4.54,8.67-7.26,12.59-3.12,4.51-6.36,9.17-7.83,14.6-2.02,7.42-.8,12.1.61,17.52a58.359,58.359,0,0,1,1.94,9.83,44.842,44.842,0,0,1,.06,7.42,53.11,53.11,0,0,1-1.04,7.26,68.91,68.91,0,0,1-1.89,7.01c-.75,2.3-1.57,4.47-2.48,6.66s-1.82,4.17-2.81,6.22a24.817,24.817,0,0,1-1.88,3.18,1.423,1.423,0,0,1-1.73.75c-.98-.41-1.26-1.84-1.39-2.76a18.874,18.874,0,0,1-.02-4.63,49.5,49.5,0,0,1,.73-5.4c.37-1.9.83-3.78,1.33-5.65.14-.52.28-1.03.42-1.55,1.28-4.7,2.48-9.15,2.48-13.56,0-5.42-1.3-10.29-2.54-15-1.99-7.51-4.05-15.28-.99-25.36,1.49-4.93,4.18-8.13,6.79-11.24a53.115,53.115,0,0,0,4.2-5.49c5.13-8.05,5.73-16.77,6.37-26a109.617,109.617,0,0,1,1.69-14.56,56.335,56.335,0,0,1,7.98-18.78c-1.32.68-2.6,1.46-3.94,2.27a46.731,46.731,0,0,1-6.21,3.35c-16.84,7.01-35.18,5.14-51.97-5.23.71,1.18,1.59,2.56,2.23,3.59,1.33,2.09,2.15,3.39,2.41,3.96,3.87,8.6,4.22,16.86,4.56,24.84.28,6.69.55,13,2.75,19.46,1.53,4.48,4.15,7.6,6.93,10.91a44.825,44.825,0,0,1,5.67,7.9c5.28,10.08,3.72,18.85,2.08,28.14a94.506,94.506,0,0,0-1.62,12.36c-.28,6.25.71,12.3,1.68,18.15a90.86,90.86,0,0,1,1.6,14.16,17.965,17.965,0,0,1-.28,4.08,2.93,2.93,0,0,1-1.25,2.07c-.86.44-1.65-.23-2.07-.94a65.95,65.95,0,0,1-5.33-11.77,75.956,75.956,0,0,1-3.48-14.09,58.329,58.329,0,0,1-.52-13.46,51.562,51.562,0,0,1,1.65-8.18,50.314,50.314,0,0,0,1.56-7.72c.91-9.96-3.89-16.7-8.96-23.82-3.21-4.51-6.53-9.17-8.37-14.76-2.35-7.17-2.92-14.67-3.48-21.93-.93-12.08-1.8-23.5-10.13-33.86-11.34-14.11-29.29-13.17-41.17-6.32-15.69,9.05-17.06,23.15-13.46,32.48,3.11,8.07,12.25,10.57,21.09,12.99,9.99,2.74,20.33,5.57,18.81,17.21-.54,4.18-2.48,7.1-5.74,8.67-7.14,3.44-18.42-.56-24.27-4.1a48.064,48.064,0,0,1-22.24-52.45c4.47-18.56,19.55-30.96,39.36-32.37,15.13-1.07,25.6,4.87,35.72,10.61,8.39,4.76,16.31,9.26,26.78,10.19,20.26,1.8,27.85-2.35,39.34-8.65,3.82-2.09,8.16-4.47,13.52-6.93,11.96-5.49,24.09-6.83,35.08-3.87a43.68,43.68,0,0,1,24.47,17.24c10.6,15.25,12.52,39.4-7.1,59.01Z" fill="#d6a647"/>
    <path id="Tracé_14" data-name="Tracé 14" d="M193.82,156.29a.917.917,0,0,1-.86.25c-6.95-7.48-16.11-12.6-25.17-14.06-8.25-1.33-16.81-.37-25.08.54-6.55.73-13.32,1.49-19.77,1.06-17.22-1.12-34.44-9.21-44.93-21.1a95.226,95.226,0,0,1-8.5-12.09.732.732,0,0,1,.9-1.03c1.87.68,3.69,1.38,5.47,2.07,7.67,2.94,14.91,5.73,23.79,6.36,7.42.53,16.1-.14,25.3-.85,28.16-2.17,60.09-4.62,68.19,27.13.93,3.65,2.12,10.21.66,11.71Z" fill="#d6a647"/>
    <path id="Tracé_15" data-name="Tracé 15" d="M351.57,112.5a4.9,4.9,0,0,0-.26.44,50.611,50.611,0,0,1-3.85,5.63c-1.55,2.01-3.2,3.98-4.52,5.38-20.09,21.22-37.19,20.16-60.85,18.68-4.26-.27-8.67-.54-13.35-.7-17.32-.59-29.68,4.05-38.85,14.61a.8.8,0,0,1-.76-.27c-1.7-1.84-.12-11.23.72-14.01,6.57-21.8,25.02-26.09,45.97-26.09,6.85,0,13.97.46,21.02.91,14.23.91,27.68,1.78,38.29-1.09,1.64-.44,5.62-2.15,9.48-3.81.58-.25,1.17-.5,1.75-.75s1.14-.49,1.72-.73c.52-.22,1.04-.44,1.56-.65q.645-.27,1.29-.51c.3-.11.6-.23.9-.32a.89.89,0,0,1,.51-.05.616.616,0,0,1,.38.27c.31.66-.71,2.34-1.15,3.06Z" fill="#d6a647"/>
    <path id="Tracé_16" data-name="Tracé 16" d="M207.12,69.31c26.43-4.53,31.89,34.73,7.79,38.86C187.93,112.8,183.44,73.36,207.12,69.31Z" fill="#d6a647"/>
    <path id="Tracé_17" data-name="Tracé 17" d="M211.23,118.08c12.33-.69,5.42,17.24,5.56,23.03.23,9.27,7.45,16.2,4.16,25.77-1.28,3.71-5.75,9.63-6.05,13.11-.24,2.79,2.46,4.97,2.98,7.45,1.85,8.82-4.66,10.8-4.86,16.46-.13,3.56,1.84,3.46,2.78,5.61,1.75,3.98-3.37,9.63-6.41,5.53-1.3-1.75-5.29-26.88-5.14-30.14.34-7.39,4.3-14.24,6.28-20.96,3.48-11.77-7.01-28.2-6.53-38.93.18-4.03,3.33-6.71,7.22-6.92Z" fill="#d6a647"/>
  </g>
  <path id="Tracé_18" data-name="Tracé 18" d="M688.19,123.09v5.29q-9,.27-13.63,1.99a9.929,9.929,0,0,0-6.22,6.35q-1.59,4.635-1.59,14.42V282.43q0,9.525,1.59,14.29a9.527,9.527,0,0,0,6.22,6.35q4.635,1.59,13.63,2.12v5.29q-6.09-.525-15.22-.66t-18.4-.13q-10.32,0-19.32.13t-14.56.66v-5.29q9-.525,13.63-2.12a9.547,9.547,0,0,0,6.22-6.35q1.59-4.77,1.59-14.29V136.85l1.06.79L578.34,311.8H574.1L507.4,140.02V279.77q0,9.525,1.72,14.95A11.943,11.943,0,0,0,516,302.4q5.16,2.25,15.48,2.78v5.29q-4.77-.525-12.44-.66t-14.56-.13c-4.59,0-8.87.05-13.37.13s-8.25.31-11.25.66v-5.29q9-.525,13.63-2.78a11.747,11.747,0,0,0,6.22-7.68q1.59-5.415,1.59-14.95V151.13q0-9.795-1.59-14.42a9.929,9.929,0,0,0-6.22-6.35q-4.635-1.725-13.63-1.99v-5.29q4.5.27,11.25.53t13.37.27q5.82,0,12.04-.27t10.46-.53l60.08,158.28-4.5,2.12,59.55-159.61h12.44q9.255,0,18.4-.27t15.22-.53Z" fill="#d6a647"/>
  <path id="Tracé_19" data-name="Tracé 19" d="M743.25,312.34a40.466,40.466,0,0,1-18.79-4.1,28.1,28.1,0,0,1-12.04-11.51,34.881,34.881,0,0,1-4.1-17.21q0-11.64,5.43-19.06a40.4,40.4,0,0,1,13.9-11.91,110.714,110.714,0,0,1,17.87-7.54q9.39-3.045,17.87-5.82a54.815,54.815,0,0,0,13.9-6.49,11.366,11.366,0,0,0,5.43-9.79V202.5q0-11.115-3.31-16.94a16.512,16.512,0,0,0-8.87-7.81,36.892,36.892,0,0,0-12.44-1.99,58.627,58.627,0,0,0-14.16,1.85,21.11,21.11,0,0,0-12.04,7.68,15.881,15.881,0,0,1,12.44,16.14q0,6.615-4.24,10.46a15.527,15.527,0,0,1-10.85,3.84q-7.68,0-11.25-4.9a18.169,18.169,0,0,1-3.57-10.98q0-6.885,3.44-11.12a42.586,42.586,0,0,1,8.73-7.94,58.452,58.452,0,0,1,15.75-7.28,72.545,72.545,0,0,1,21.84-3.04,60.169,60.169,0,0,1,18.53,2.51,33.217,33.217,0,0,1,12.71,7.28,29.846,29.846,0,0,1,9,15.48,98,98,0,0,1,2.12,21.84v73.58q0,6.615,1.99,9.53t6.22,2.91a12.324,12.324,0,0,0,5.56-1.32,38.776,38.776,0,0,0,6.35-4.24l2.91,4.5a86.831,86.831,0,0,1-10.59,7.01q-5.025,2.775-13.5,2.78-7.68,0-12.71-2.65a16.982,16.982,0,0,1-7.54-7.81q-2.52-5.16-2.51-13.1-7.14,11.91-17.07,17.73a43.392,43.392,0,0,1-22.37,5.82Zm9.53-10.58a28.748,28.748,0,0,0,16.28-5.03q7.545-5.025,13.63-15.09V229.76a24.324,24.324,0,0,1-9.26,7.54q-6.09,3.045-13.23,6.09a94.938,94.938,0,0,0-13.63,7.15,34.491,34.491,0,0,0-10.72,10.72q-4.23,6.615-4.23,17.21t5.69,16.94q5.685,6.36,15.48,6.35Z" fill="#d6a647"/>
  <path id="Tracé_20" data-name="Tracé 20" d="M880.09,130.24v44.2h39.17v5.29H880.09V282.16q0,12.45,4.5,17.47t12.44,5.03q7.935,0,13.76-6.48t10.06-21.84l5.29,1.32q-2.655,15.36-10.46,25.94t-23.95,10.59q-9,0-14.82-2.25a31.509,31.509,0,0,1-10.32-6.48,32.818,32.818,0,0,1-8.07-14.56q-2.25-8.46-2.25-22.5V179.73H830.86v-5.29h25.41v-40.5q6.615-.255,12.71-1.06a51.172,51.172,0,0,0,11.12-2.65Z" fill="#d6a647"/>
  <path id="Tracé_21" data-name="Tracé 21" d="M995.49,170.47q23.3,0,36.39,14.16t13.1,44.07H951.55l-.26-5.03h68.29a87.183,87.183,0,0,0-2.12-23.95q-2.655-10.98-8.34-17.6a18.5,18.5,0,0,0-14.69-6.62q-12.18,0-21.57,12.18-9.405,12.18-11.25,38.64l.79,1.06q-.54,3.975-.79,8.73c-.18,3.18-.27,6.35-.27,9.53q0,18,5.82,30.97t15.22,19.72q9.39,6.75,19.45,6.75a45.084,45.084,0,0,0,15.09-2.51,36.879,36.879,0,0,0,13.23-8.34,50.623,50.623,0,0,0,10.59-15.62l5.29,2.12a54.547,54.547,0,0,1-9.53,16.94,51.013,51.013,0,0,1-16.67,13.37q-10.065,5.16-23.29,5.16-19.065,0-32.69-8.73a56.632,56.632,0,0,1-20.91-24.22q-7.29-15.48-7.28-35.6,0-23.295,7.41-40.1t20.91-25.94q13.5-9.135,31.5-9.13Z" fill="#d6a647"/>
  <path id="Tracé_22" data-name="Tracé 22" d="M1147.42,170.47a26.208,26.208,0,0,1,12.57,2.91,22.8,22.8,0,0,1,8.47,7.54,18.631,18.631,0,0,1,3.04,10.46,17.919,17.919,0,0,1-4.1,11.65,13.466,13.466,0,0,1-10.98,5.03,14.722,14.722,0,0,1-9.79-3.57q-4.245-3.57-4.24-10.19a13.6,13.6,0,0,1,2.78-8.6,23.409,23.409,0,0,1,6.22-5.69,6.358,6.358,0,0,0-5.56-2.65,25.443,25.443,0,0,0-15.09,4.9,43.268,43.268,0,0,0-11.65,12.57,69.311,69.311,0,0,0-7.41,16.28,54.554,54.554,0,0,0-2.65,16.01v56.11q0,12.975,7.54,17.34t20.51,4.37v5.56c-4.06-.17-9.79-.4-17.21-.66s-15.26-.4-23.56-.4q-9,0-17.87.4c-5.91.26-10.37.49-13.37.66v-5.56q10.845,0,15.48-3.97,4.62-3.975,4.63-15.09V203.03q0-11.91-4.24-17.6t-15.88-5.69v-5.56q8.475.795,16.41.79a109.9,109.9,0,0,0,14.69-.93,74.664,74.664,0,0,0,12.84-2.78v33.08a71.689,71.689,0,0,1,8.34-15.48,51.459,51.459,0,0,1,13.1-13.1,29.176,29.176,0,0,1,16.94-5.29Z" fill="#d6a647"/>
  <path id="Tracé_23" data-name="Tracé 23" d="M1226.82,171.27V285.88q0,11.115,4.63,15.09t15.48,3.97v5.56c-3-.17-7.54-.4-13.63-.66s-12.22-.4-18.4-.4-12.09.13-18.26.4-10.77.49-13.76.66v-5.56q10.845,0,15.48-3.97,4.62-3.975,4.63-15.09V203.03q0-11.91-4.24-17.6t-15.88-5.69v-5.56q8.475.795,16.41.79a109.9,109.9,0,0,0,14.69-.93,74.664,74.664,0,0,0,12.84-2.78Zm-13.76-63.26a16.844,16.844,0,0,1,11.91,28.85,16.844,16.844,0,1,1-23.82-23.82,16.281,16.281,0,0,1,11.91-5.03Z" fill="#d6a647"/>
  <path id="Tracé_24" data-name="Tracé 24" d="M1307.81,170.47q10.59,0,18,3.44a49.932,49.932,0,0,1,10.85,6.35q8.73,7.155,10.59-9.53h6.09q-.54,7.41-.79,17.6-.27,10.185-.26,27.39h-6.09a85.386,85.386,0,0,0-5.43-19.06,37.661,37.661,0,0,0-11.25-15.22q-7.41-5.955-19.32-5.96-9.27,0-15.48,5.16-6.225,5.16-6.22,15.22a20.57,20.57,0,0,0,4.76,13.63,53.727,53.727,0,0,0,12.44,10.59q7.68,4.905,16.67,10.72a196.507,196.507,0,0,1,18.26,12.97,57.685,57.685,0,0,1,13.1,14.56,35.121,35.121,0,0,1,4.9,18.79q0,12.18-6.35,20.38a39.721,39.721,0,0,1-16.54,12.44,57.811,57.811,0,0,1-22.37,4.23,61.881,61.881,0,0,1-10.98-.93,54.03,54.03,0,0,1-9.93-2.78,49.79,49.79,0,0,1-5.43-3.18c-1.85-1.23-3.66-2.56-5.43-3.97s-3.35-1.37-4.76.13-2.47,4.46-3.18,8.87h-6.09q.525-8.475.79-20.65t.26-32.29h6.09a152.164,152.164,0,0,0,5.29,25.94q3.435,11.115,10.85,17.34t20.65,6.22a26.489,26.489,0,0,0,10.72-2.38,21.2,21.2,0,0,0,9.13-7.94q3.7-5.565,3.71-14.82a24.2,24.2,0,0,0-8.47-19.06,176.33,176.33,0,0,0-21.44-15.62q-9.525-6.09-17.87-12.17a55.29,55.29,0,0,1-13.5-13.76q-5.16-7.68-5.16-18.53,0-11.91,5.43-19.45a31.729,31.729,0,0,1,14.42-11.12,51.916,51.916,0,0,1,19.32-3.57Z" fill="#d6a647"/>
</svg>
