<svg xmlns="http://www.w3.org/2000/svg" width="422.2" height="422.2" viewBox="0 0 422.2 422.2">
  <g id="Groupe_7" data-name="Groupe 7" transform="translate(-370.75 30.25)">
    <rect id="Rectangle_6" data-name="Rectangle 6" width="422.2" height="422.2" rx="211.1" transform="translate(370.75 -30.25)" fill="#faf8f4"/>
    <g id="Groupe_6" data-name="Groupe 6" transform="translate(388.505 -41)">
      <path id="Tracé_1" data-name="Tracé 1" d="M288.536,313.589a47.016,47.016,0,0,1-14.93,9.795c-7.03,2.781-12.953,2.559-17.136-.656-4.126-3.158-5.053-8.6-2.371-13.855,2.756-5.406,9.319-7.12,16.267-8.941,9.179-2.4,18.662-4.889,20.114-16.152,1.755-13.634-7.022-22.731-15.816-26.709-10.164-4.594-25.471-4.545-35.068,6.382-8.31,9.475-9.188,20.368-10.123,31.894-.582,7.227-1.181,14.708-3.814,21.714-1.591,4.233-4.175,7.957-6.669,11.558-2.871,4.143-5.841,8.425-7.194,13.412-1.854,6.817-.73,11.115.566,16.095a53.494,53.494,0,0,1,1.78,9.032,41.116,41.116,0,0,1,.057,6.817,50.018,50.018,0,0,1-.952,6.669,61.005,61.005,0,0,1-1.731,6.439c-.689,2.116-1.436,4.11-2.272,6.12s-1.673,3.831-2.584,5.709a22.782,22.782,0,0,1-1.731,2.92,1.3,1.3,0,0,1-1.583.689c-.9-.377-1.157-1.69-1.28-2.535a17.535,17.535,0,0,1-.016-4.249,42.417,42.417,0,0,1,.673-4.955c.336-1.747.763-3.47,1.222-5.184.123-.476.254-.952.386-1.419,1.173-4.323,2.28-8.4,2.28-12.452,0-4.979-1.189-9.45-2.338-13.781-1.821-6.9-3.716-14.036-.911-23.3,1.37-4.528,3.839-7.473,6.234-10.328a48.194,48.194,0,0,0,3.855-5.045c4.709-7.391,5.266-15.405,5.857-23.888a99.327,99.327,0,0,1,1.559-13.371,51.661,51.661,0,0,1,7.334-17.251c-1.214.623-2.387,1.345-3.618,2.084a41.77,41.77,0,0,1-5.709,3.076c-15.471,6.439-32.32,4.725-47.734-4.8.656,1.083,1.46,2.354,2.051,3.3,1.222,1.92,1.977,3.117,2.215,3.642,3.56,7.9,3.88,15.488,4.192,22.821.263,6.144.5,11.944,2.527,17.875,1.4,4.11,3.814,6.981,6.366,10.016a40.609,40.609,0,0,1,5.2,7.26c4.848,9.253,3.421,17.317,1.911,25.848a86.951,86.951,0,0,0-1.485,11.353c-.263,5.742.656,11.3,1.542,16.677a84.884,84.884,0,0,1,1.477,13,15.969,15.969,0,0,1-.254,3.749,2.721,2.721,0,0,1-1.14,1.9c-.8.4-1.518-.213-1.9-.87a60.768,60.768,0,0,1-4.9-10.812,69.576,69.576,0,0,1-3.191-12.945,53.375,53.375,0,0,1-.476-12.37,48,48,0,0,1,1.509-7.514,47.638,47.638,0,0,0,1.436-7.088c.829-9.146-3.568-15.34-8.236-21.878-2.945-4.143-6-8.425-7.686-13.56-2.157-6.587-2.682-13.478-3.2-20.139-.853-11.1-1.657-21.582-9.3-31.1-10.418-12.961-26.9-12.1-37.816-5.808-14.413,8.31-15.676,21.263-12.362,29.827,2.855,7.407,11.246,9.7,19.368,11.927,9.179,2.518,18.67,5.111,17.276,15.816-.492,3.839-2.272,6.513-5.275,7.965-6.554,3.158-16.915-.517-22.288-3.765a44.157,44.157,0,0,1-20.426-48.177c4.1-17.046,17.957-28.44,36.151-29.728,13.9-.984,23.51,4.471,32.8,9.745,7.711,4.372,14.979,8.5,24.593,9.36,18.613,1.657,25.577-2.157,36.135-7.941,3.511-1.92,7.5-4.1,12.42-6.366,10.984-5.045,22.124-6.275,32.222-3.56a40.134,40.134,0,0,1,22.477,15.832c9.737,14,11.5,36.184-6.513,54.206Z" transform="translate(-6.091 -27.219)" fill="#d6a647"/>
      <path id="Tracé_2" data-name="Tracé 2" d="M177.478,179.147a.837.837,0,0,1-.788.23c-6.382-6.866-14.8-11.566-23.125-12.912-7.58-1.222-15.438-.345-23.043.492-6.013.673-12.231,1.37-18.162.976-15.816-1.034-31.631-8.457-41.27-19.384a88.52,88.52,0,0,1-7.809-11.107.678.678,0,0,1,.829-.952c1.714.623,3.388,1.271,5.02,1.895,7.046,2.7,13.7,5.266,21.853,5.849,6.817.492,14.79-.131,23.239-.779,25.873-1.993,55.2-4.241,62.639,24.921.853,3.347,1.944,9.376.607,10.762Z" transform="translate(0 -8.22)" fill="#d6a647"/>
      <path id="Tracé_3" data-name="Tracé 3" d="M354.362,138.794c-.1.164-.18.3-.238.4a46.5,46.5,0,0,1-3.544,5.176c-1.419,1.846-2.937,3.659-4.151,4.938-18.449,19.491-34.158,18.514-55.888,17.153-3.913-.246-7.965-.492-12.264-.64-15.914-.541-27.259,3.724-35.684,13.412a.745.745,0,0,1-.7-.246c-1.567-1.69-.107-10.32.664-12.863,6.038-20.024,22.977-23.961,42.221-23.961,6.292,0,12.83.418,19.31.837,13.076.837,25.43,1.632,35.175-1,1.5-.4,5.168-1.977,8.7-3.495.533-.23,1.075-.459,1.608-.689s1.05-.451,1.575-.673c.476-.205.952-.4,1.436-.6.394-.164.788-.32,1.181-.476.271-.107.55-.205.829-.3a.83.83,0,0,1,.468-.049.574.574,0,0,1,.353.246c.279.6-.656,2.149-1.058,2.805Z" transform="translate(-31.984 -8.087)" fill="#d6a647"/>
      <path id="Tracé_4" data-name="Tracé 4" d="M214.306,91.037c24.281-4.159,29.285,31.9,7.161,35.7C196.686,130.986,192.56,94.761,214.306,91.037Z" transform="translate(-24.614 0)" fill="#d6a647"/>
      <path id="Tracé_5" data-name="Tracé 5" d="M220.555,145.706c11.329-.632,4.971,15.832,5.111,21.156.213,8.515,6.841,14.88,3.823,23.674-1.173,3.413-5.283,8.843-5.562,12.042-.221,2.568,2.256,4.561,2.732,6.841,1.7,8.1-4.282,9.926-4.463,15.118-.115,3.273,1.69,3.183,2.559,5.152,1.608,3.659-3.093,8.843-5.89,5.086-1.2-1.608-4.856-24.691-4.717-27.686.32-6.792,3.946-13.084,5.775-19.253,3.2-10.812-6.439-25.905-6-35.766a6.672,6.672,0,0,1,6.628-6.357Z" transform="translate(-27.081 -9.88)" fill="#d6a647"/>
    </g>
  </g>
</svg>
